<svg xmlns="http://www.w3.org/2000/svg" width="192" height="192" viewBox="0 0 512 512">
  <defs>
    <linearGradient id="bg" x1="0" y1="0" x2="1" y2="1">
      <stop offset="0%" stop-color="#140a23"/>
      <stop offset="100%" stop-color="#091529"/>
    </linearGradient>
    <linearGradient id="heart" x1="0" y1="0" x2="1" y2="1">
      <stop offset="0%" stop-color="#ff5db1"/>
      <stop offset="100%" stop-color="#7c8cff"/>
    </linearGradient>
  </defs>
  <rect width="192" height="192" rx="120" fill="url(#bg)"/>
  <circle cx="160" cy="150" r="18" fill="#ffffff" opacity="0.18"/>
  <circle cx="370" cy="116" r="10" fill="#ffffff" opacity="0.12"/>
  <circle cx="402" cy="178" r="7" fill="#ffffff" opacity="0.16"/>
  <path d="M256 380c-18-14-37-29-56-45-52-43-98-84-98-140 0-40 28-71 67-71 29 0 52 16 66 38 14-22 37-38 66-38 39 0 67 31 67 71 0 56-46 97-98 140-19 16-38 31-56 45z" fill="url(#heart)"/>
  <text x="256" y="446" font-family="Arial, sans-serif" font-size="44" text-anchor="middle" fill="#f8eaff">First Love</text>
</svg>